<!--
  ==========================================================================
  PhytoScope — attribution — pdf-src/assets/svg/logiciel-descripteurs.svg

  Version  : 1.5.1
  Date     : 2026-09-18
  Éditeur  : Bretagne Namasté
  Auteur   : Thierry GAYET <Thierry.Gayet@gmail.com>
  Site     : https://bretagne-namaste.com
  Contact  : contact@bretagne-namaste.com
  Licence  : MIT — voir LICENCE.txt

  SPDX-License-Identifier: MIT
  fin de l'attribution
  ==========================================================================
-->

<svg xmlns="http://www.w3.org/2000/svg" viewBox="0 0 980 706" width="980" height="706">
<defs>
 <marker id="ah" viewBox="0 0 10 10" refX="8.5" refY="5" markerWidth="5.5"
   markerHeight="5.5" orient="auto-start-reverse">
   <path d="M0,0 L10,5 L0,10 z" fill="#B08528"/></marker>
 <marker id="ahb" viewBox="0 0 10 10" refX="8.5" refY="5" markerWidth="5.5"
   markerHeight="5.5" orient="auto-start-reverse">
   <path d="M0,0 L10,5 L0,10 z" fill="#2F5E86"/></marker>
 <marker id="ahv" viewBox="0 0 10 10" refX="8.5" refY="5" markerWidth="5.5"
   markerHeight="5.5" orient="auto-start-reverse">
   <path d="M0,0 L10,5 L0,10 z" fill="#3F7D5A"/></marker>
 <marker id="ahk" viewBox="0 0 10 10" refX="8.5" refY="5" markerWidth="5"
   markerHeight="5" orient="auto-start-reverse">
   <path d="M0,0 L10,5 L0,10 z" fill="#23302C"/></marker>
 <marker id="ahc" viewBox="0 0 10 10" refX="8.5" refY="5" markerWidth="5.5"
   markerHeight="5.5" orient="auto-start-reverse">
   <path d="M0,0 L10,5 L0,10 z" fill="#A8552E"/></marker>
 <pattern id="hatch" width="7" height="7" patternTransform="rotate(45)"
   patternUnits="userSpaceOnUse">
   <line x1="0" y1="0" x2="0" y2="7" stroke="#E0C073" stroke-width="2.4"/></pattern>
 <pattern id="hatchb" width="7" height="7" patternTransform="rotate(45)"
   patternUnits="userSpaceOnUse">
   <line x1="0" y1="0" x2="0" y2="7" stroke="#cfe0f2" stroke-width="2.8"/></pattern>
</defs>
<rect width="980" height="706" fill="#FFFFFF"/>
<text x="490.0" y="35.95503184" font-family="Cormorant Garamond, serif" font-size="30.42" fill="#0E2A22" text-anchor="middle" font-weight="700" font-style="normal" letter-spacing="0">Six regards sur le même signal</text>
<text x="490.0" y="66.37852031999999" font-family="Lato, sans-serif" font-size="20.47" fill="#6B7A72" text-anchor="middle" font-weight="400" font-style="italic" letter-spacing="0">La même minute d'enregistrement, vue par six outils — et ce que chacun permet de dire</text>
<rect x="30" y="72" width="296" height="188" rx="5" fill="#fff" stroke="#D9D9C6" stroke-width="1.2"/>
<rect x="30" y="72" width="296" height="21" rx="5" fill="#3F7D5A" opacity="0.14"/>
<text x="40" y="87" font-family="Lato, sans-serif" font-size="19.36" fill="#3F7D5A" text-anchor="start" font-weight="700" font-style="normal" letter-spacing="0">Forme d'onde</text>
<text x="40" y="234" font-family="Lato, sans-serif" font-size="15.49" fill="#6B7A72" text-anchor="start" font-weight="400" font-style="normal" letter-spacing="0">Rien n'y est calculé,</text>
<text x="40" y="246" font-family="Lato, sans-serif" font-size="15.49" fill="#6B7A72" text-anchor="start" font-weight="400" font-style="normal" letter-spacing="0">donc rien n'y est perdu.</text>
<path d="M 42.0,188.9 L 43.7,178.5 L 45.4,181.9 L 47.1,178.1 L 48.8,182.1 L 50.6,176.8 L 52.3,184.2 L 54.0,174.0 L 55.7,172.0 L 57.4,180.6 L 59.1,170.5 L 60.8,179.5 L 62.5,173.5 L 64.2,168.1 L 65.9,171.4 L 67.7,169.0 L 69.4,166.7 L 71.1,167.2 L 72.8,163.3 L 74.5,171.7 L 76.2,165.5 L 77.9,170.8 L 79.6,171.2 L 81.3,163.9 L 83.1,161.6 L 84.8,160.5 L 86.5,167.3 L 88.2,165.0 L 89.9,164.9 L 91.6,167.3 L 93.3,164.2 L 95.0,160.3 L 96.7,160.9 L 98.5,159.4 L 100.2,156.2 L 101.9,161.2 L 103.6,152.9 L 105.3,162.5 L 107.0,157.5 L 108.7,158.4 L 110.4,156.5 L 112.1,154.2 L 113.8,160.7 L 115.6,158.1 L 117.3,159.6 L 119.0,160.8 L 120.7,160.7 L 122.4,153.8 L 124.1,155.7 L 125.8,150.9 L 127.5,150.9 L 129.2,150.8 L 131.0,159.6 L 132.7,150.6 L 134.4,149.0 L 136.1,160.0 L 137.8,151.3 L 139.5,152.5 L 141.2,152.4 L 142.9,155.4 L 144.6,157.2 L 146.4,157.8 L 148.1,152.1 L 149.8,160.9 L 151.5,159.4 L 153.2,150.4 L 154.9,157.4 L 156.6,160.5 L 158.3,151.3 L 160.0,155.7 L 161.7,152.9 L 163.5,157.9 L 165.2,163.2 L 166.9,154.9 L 168.6,162.2 L 170.3,163.1 L 172.0,166.1 L 173.7,165.5 L 175.4,167.7 L 177.1,162.4 L 178.9,168.5 L 180.6,161.9 L 182.3,161.4 L 184.0,165.1 L 185.7,160.3 L 187.4,168.5 L 189.1,171.8 L 190.8,161.6 L 192.5,162.9 L 194.3,162.7 L 196.0,162.6 L 197.7,163.3 L 199.4,169.2 L 201.1,172.9 L 202.8,170.7 L 204.5,162.6 L 206.2,161.4 L 207.9,162.9 L 209.6,148.3 L 211.4,146.3 L 213.1,147.6 L 214.8,134.4 L 216.5,132.5 L 218.2,119.3 L 219.9,113.5 L 221.6,110.0 L 223.3,109.9 L 225.0,102.0 L 226.8,111.1 L 228.5,111.8 L 230.2,108.1 L 231.9,120.7 L 233.6,122.5 L 235.3,125.0 L 237.0,134.0 L 238.7,146.1 L 240.4,157.8 L 242.2,167.3 L 243.9,164.9 L 245.6,174.5 L 247.3,187.6 L 249.0,189.6 L 250.7,185.6 L 252.4,188.8 L 254.1,198.3 L 255.8,194.9 L 257.5,195.1 L 259.3,198.4 L 261.0,199.6 L 262.7,202.7 L 264.4,203.4 L 266.1,199.9 L 267.8,210.3 L 269.5,209.8 L 271.2,200.0 L 272.9,210.0 L 274.7,206.2 L 276.4,205.7 L 278.1,209.2 L 279.8,204.4 L 281.5,214.0 L 283.2,205.4 L 284.9,206.2 L 286.6,205.5 L 288.3,213.8 L 290.1,208.9 L 291.8,208.9 L 293.5,215.2 L 295.2,212.9 L 296.9,211.1 L 298.6,208.9 L 300.3,210.6 L 302.0,214.2 L 303.7,213.7 L 305.4,210.7 L 307.2,210.9 L 308.9,211.9 L 310.6,212.2 L 312.3,218.0 L 314.0,208.3" fill="none" stroke="#3F7D5A" stroke-width="1.4" stroke-linecap="round" stroke-linejoin="round"/>
<rect x="342" y="72" width="296" height="188" rx="5" fill="#fff" stroke="#D9D9C6" stroke-width="1.2"/>
<rect x="342" y="72" width="296" height="21" rx="5" fill="#2F5E86" opacity="0.14"/>
<text x="352" y="87" font-family="Lato, sans-serif" font-size="19.36" fill="#2F5E86" text-anchor="start" font-weight="700" font-style="normal" letter-spacing="0">Spectre (FFT)</text>
<text x="352" y="222" font-family="Lato, sans-serif" font-size="15.49" fill="#6B7A72" text-anchor="start" font-weight="400" font-style="normal" letter-spacing="0">Les périodicités, et le réseau.</text>
<text x="352" y="234" font-family="Lato, sans-serif" font-size="15.49" fill="#6B7A72" text-anchor="start" font-weight="400" font-style="normal" letter-spacing="0">Suppose le signal stationnaire :</text>
<text x="352" y="246" font-family="Lato, sans-serif" font-size="15.49" fill="#6B7A72" text-anchor="start" font-weight="400" font-style="normal" letter-spacing="0">il ne l'est jamais longtemps.</text>
<path d="M 354.0,102.0 L 355.7,116.7 L 357.4,125.0 L 359.1,131.5 L 360.8,135.6 L 362.6,139.9 L 364.3,142.6 L 366.0,145.5 L 367.7,147.6 L 369.4,150.5 L 371.1,152.3 L 372.8,154.5 L 374.5,155.2 L 376.2,156.3 L 377.9,158.4 L 379.7,161.1 L 381.4,162.1 L 383.1,161.7 L 384.8,162.1 L 386.5,163.7 L 388.2,166.1 L 389.9,166.0 L 391.6,166.7 L 393.3,167.4 L 395.1,167.7 L 396.8,167.8 L 398.5,168.9 L 400.2,170.5 L 401.9,172.7 L 403.6,172.2 L 405.3,172.2 L 407.0,175.7 L 408.7,173.3 L 410.5,175.9 L 412.2,175.7 L 413.9,174.1 L 415.6,175.2 L 417.3,177.5 L 419.0,178.3 L 420.7,178.9 L 422.4,179.0 L 424.1,177.0 L 425.8,177.1 L 427.6,179.4 L 429.3,181.7 L 431.0,180.9 L 432.7,182.1 L 434.4,182.8 L 436.1,183.1 L 437.8,182.5 L 439.5,185.1 L 441.2,184.4 L 443.0,184.9 L 444.7,182.0 L 446.4,184.0 L 448.1,182.3 L 449.8,185.9 L 451.5,187.5 L 453.2,181.9 L 454.9,186.6 L 456.6,183.0 L 458.4,183.9 L 460.1,183.4 L 461.8,185.0 L 463.5,186.0 L 465.2,188.1 L 466.9,185.9 L 468.6,187.1 L 470.3,186.7 L 472.0,185.0 L 473.7,189.0 L 475.5,192.1 L 477.2,187.6 L 478.9,186.5 L 480.6,191.5 L 482.3,192.7 L 484.0,188.9 L 485.7,192.1 L 487.4,193.8 L 489.1,186.9 L 490.9,193.8 L 492.6,190.3 L 494.3,193.2 L 496.0,192.2 L 497.7,194.0 L 499.4,188.8 L 501.1,195.8 L 502.8,195.4 L 504.5,189.2 L 506.3,189.7 L 508.0,195.3 L 509.7,195.4 L 511.4,193.2 L 513.1,189.7 L 514.8,190.2 L 516.5,189.2 L 518.2,185.6 L 519.9,144.3 L 521.6,125.3 L 523.4,144.1 L 525.1,185.3 L 526.8,192.8 L 528.5,191.6 L 530.2,196.3 L 531.9,194.5 L 533.6,199.6 L 535.3,198.7 L 537.0,197.2 L 538.8,195.4 L 540.5,200.3 L 542.2,195.6 L 543.9,192.6 L 545.6,191.8 L 547.3,200.9 L 549.0,201.3 L 550.7,197.6 L 552.4,194.1 L 554.2,199.9 L 555.9,199.2 L 557.6,198.6 L 559.3,199.5 L 561.0,198.4 L 562.7,193.2 L 564.4,194.3 L 566.1,198.0 L 567.8,200.5 L 569.5,199.0 L 571.3,197.6 L 573.0,197.7 L 574.7,201.2 L 576.4,194.4 L 578.1,196.4 L 579.8,197.1 L 581.5,204.1 L 583.2,201.5 L 584.9,198.5 L 586.7,203.7 L 588.4,197.7 L 590.1,195.2 L 591.8,199.2 L 593.5,200.2 L 595.2,201.2 L 596.9,202.2 L 598.6,198.8 L 600.3,202.7 L 602.1,196.8 L 603.8,199.1 L 605.5,199.4 L 607.2,198.4 L 608.9,195.3 L 610.6,200.4 L 612.3,201.9 L 614.0,195.9 L 615.7,203.3 L 617.4,201.8 L 619.2,203.1 L 620.9,201.6 L 622.6,200.1 L 624.3,206.0 L 626.0,204.6" fill="none" stroke="#2F5E86" stroke-width="1.3" stroke-linecap="round" stroke-linejoin="round"/>
<text x="522.64" y="112" font-family="Lato, sans-serif" font-size="15.49" fill="#A8552E" text-anchor="start" font-weight="400" font-style="normal" letter-spacing="0">50 Hz</text>
<rect x="654" y="72" width="296" height="188" rx="5" fill="#fff" stroke="#D9D9C6" stroke-width="1.2"/>
<rect x="654" y="72" width="296" height="21" rx="5" fill="#B08528" opacity="0.14"/>
<text x="664" y="87" font-family="Lato, sans-serif" font-size="19.36" fill="#B08528" text-anchor="start" font-weight="700" font-style="normal" letter-spacing="0">Ondelettes (scalogramme)</text>
<text x="664" y="222" font-family="Lato, sans-serif" font-size="15.49" fill="#6B7A72" text-anchor="start" font-weight="400" font-style="normal" letter-spacing="0">Situe dans le temps ce que</text>
<text x="664" y="234" font-family="Lato, sans-serif" font-size="15.49" fill="#6B7A72" text-anchor="start" font-weight="400" font-style="normal" letter-spacing="0">la FFT se contente de moyenner.</text>
<text x="664" y="246" font-family="Lato, sans-serif" font-size="15.49" fill="#6B7A72" text-anchor="start" font-weight="400" font-style="normal" letter-spacing="0">La mieux adaptée à ce signal.</text>
<rect x="692.0" y="102.0" width="10.1" height="11.0" fill="#3F7D5A" opacity="0.06"/>
<rect x="692.0" y="112.4" width="10.1" height="11.0" fill="#3F7D5A" opacity="0.06"/>
<rect x="692.0" y="122.8" width="10.1" height="11.0" fill="#3F7D5A" opacity="0.05"/>
<rect x="692.0" y="133.2" width="10.1" height="11.0" fill="#3F7D5A" opacity="0.05"/>
<rect x="692.0" y="143.6" width="10.1" height="11.0" fill="#3F7D5A" opacity="0.08"/>
<rect x="692.0" y="154.0" width="10.1" height="11.0" fill="#3F7D5A" opacity="0.13"/>
<rect x="692.0" y="164.4" width="10.1" height="11.0" fill="#3F7D5A" opacity="0.30"/>
<rect x="692.0" y="174.8" width="10.1" height="11.0" fill="#3F7D5A" opacity="0.38"/>
<rect x="692.0" y="185.2" width="10.1" height="11.0" fill="#3F7D5A" opacity="0.43"/>
<rect x="692.0" y="195.6" width="10.1" height="11.0" fill="#3F7D5A" opacity="0.30"/>
<rect x="701.5" y="102.0" width="10.1" height="11.0" fill="#3F7D5A" opacity="0.00"/>
<rect x="701.5" y="112.4" width="10.1" height="11.0" fill="#3F7D5A" opacity="0.07"/>
<rect x="701.5" y="122.8" width="10.1" height="11.0" fill="#3F7D5A" opacity="0.01"/>
<rect x="701.5" y="133.2" width="10.1" height="11.0" fill="#3F7D5A" opacity="0.04"/>
<rect x="701.5" y="143.6" width="10.1" height="11.0" fill="#3F7D5A" opacity="0.07"/>
<rect x="701.5" y="154.0" width="10.1" height="11.0" fill="#3F7D5A" opacity="0.14"/>
<rect x="701.5" y="164.4" width="10.1" height="11.0" fill="#3F7D5A" opacity="0.30"/>
<rect x="701.5" y="174.8" width="10.1" height="11.0" fill="#B08528" opacity="0.52"/>
<rect x="701.5" y="185.2" width="10.1" height="11.0" fill="#B08528" opacity="0.51"/>
<rect x="701.5" y="195.6" width="10.1" height="11.0" fill="#3F7D5A" opacity="0.37"/>
<rect x="710.9" y="102.0" width="10.1" height="11.0" fill="#3F7D5A" opacity="0.02"/>
<rect x="710.9" y="112.4" width="10.1" height="11.0" fill="#3F7D5A" opacity="0.04"/>
<rect x="710.9" y="122.8" width="10.1" height="11.0" fill="#3F7D5A" opacity="0.02"/>
<rect x="710.9" y="133.2" width="10.1" height="11.0" fill="#3F7D5A" opacity="0.05"/>
<rect x="710.9" y="143.6" width="10.1" height="11.0" fill="#3F7D5A" opacity="0.10"/>
<rect x="710.9" y="154.0" width="10.1" height="11.0" fill="#3F7D5A" opacity="0.18"/>
<rect x="710.9" y="164.4" width="10.1" height="11.0" fill="#3F7D5A" opacity="0.40"/>
<rect x="710.9" y="174.8" width="10.1" height="11.0" fill="#B08528" opacity="0.60"/>
<rect x="710.9" y="185.2" width="10.1" height="11.0" fill="#B08528" opacity="0.61"/>
<rect x="710.9" y="195.6" width="10.1" height="11.0" fill="#3F7D5A" opacity="0.38"/>
<rect x="720.4" y="102.0" width="10.1" height="11.0" fill="#3F7D5A" opacity="0.07"/>
<rect x="720.4" y="112.4" width="10.1" height="11.0" fill="#3F7D5A" opacity="0.01"/>
<rect x="720.4" y="122.8" width="10.1" height="11.0" fill="#3F7D5A" opacity="0.03"/>
<rect x="720.4" y="133.2" width="10.1" height="11.0" fill="#3F7D5A" opacity="0.03"/>
<rect x="720.4" y="143.6" width="10.1" height="11.0" fill="#3F7D5A" opacity="0.09"/>
<rect x="720.4" y="154.0" width="10.1" height="11.0" fill="#3F7D5A" opacity="0.22"/>
<rect x="720.4" y="164.4" width="10.1" height="11.0" fill="#B08528" opacity="0.45"/>
<rect x="720.4" y="174.8" width="10.1" height="11.0" fill="#B08528" opacity="0.67"/>
<rect x="720.4" y="185.2" width="10.1" height="11.0" fill="#B08528" opacity="0.63"/>
<rect x="720.4" y="195.6" width="10.1" height="11.0" fill="#B08528" opacity="0.47"/>
<rect x="729.8" y="102.0" width="10.1" height="11.0" fill="#3F7D5A" opacity="0.06"/>
<rect x="729.8" y="112.4" width="10.1" height="11.0" fill="#3F7D5A" opacity="0.01"/>
<rect x="729.8" y="122.8" width="10.1" height="11.0" fill="#3F7D5A" opacity="0.07"/>
<rect x="729.8" y="133.2" width="10.1" height="11.0" fill="#3F7D5A" opacity="0.05"/>
<rect x="729.8" y="143.6" width="10.1" height="11.0" fill="#3F7D5A" opacity="0.11"/>
<rect x="729.8" y="154.0" width="10.1" height="11.0" fill="#3F7D5A" opacity="0.22"/>
<rect x="729.8" y="164.4" width="10.1" height="11.0" fill="#B08528" opacity="0.49"/>
<rect x="729.8" y="174.8" width="10.1" height="11.0" fill="#B08528" opacity="0.64"/>
<rect x="729.8" y="185.2" width="10.1" height="11.0" fill="#B08528" opacity="0.69"/>
<rect x="729.8" y="195.6" width="10.1" height="11.0" fill="#B08528" opacity="0.47"/>
<rect x="739.3" y="102.0" width="10.1" height="11.0" fill="#3F7D5A" opacity="0.02"/>
<rect x="739.3" y="112.4" width="10.1" height="11.0" fill="#3F7D5A" opacity="0.04"/>
<rect x="739.3" y="122.8" width="10.1" height="11.0" fill="#3F7D5A" opacity="0.01"/>
<rect x="739.3" y="133.2" width="10.1" height="11.0" fill="#3F7D5A" opacity="0.03"/>
<rect x="739.3" y="143.6" width="10.1" height="11.0" fill="#3F7D5A" opacity="0.06"/>
<rect x="739.3" y="154.0" width="10.1" height="11.0" fill="#3F7D5A" opacity="0.22"/>
<rect x="739.3" y="164.4" width="10.1" height="11.0" fill="#3F7D5A" opacity="0.44"/>
<rect x="739.3" y="174.8" width="10.1" height="11.0" fill="#B08528" opacity="0.67"/>
<rect x="739.3" y="185.2" width="10.1" height="11.0" fill="#B08528" opacity="0.71"/>
<rect x="739.3" y="195.6" width="10.1" height="11.0" fill="#B08528" opacity="0.46"/>
<rect x="748.8" y="102.0" width="10.1" height="11.0" fill="#3F7D5A" opacity="0.05"/>
<rect x="748.8" y="112.4" width="10.1" height="11.0" fill="#3F7D5A" opacity="0.08"/>
<rect x="748.8" y="122.8" width="10.1" height="11.0" fill="#3F7D5A" opacity="0.05"/>
<rect x="748.8" y="133.2" width="10.1" height="11.0" fill="#3F7D5A" opacity="0.04"/>
<rect x="748.8" y="143.6" width="10.1" height="11.0" fill="#3F7D5A" opacity="0.11"/>
<rect x="748.8" y="154.0" width="10.1" height="11.0" fill="#3F7D5A" opacity="0.21"/>
<rect x="748.8" y="164.4" width="10.1" height="11.0" fill="#B08528" opacity="0.49"/>
<rect x="748.8" y="174.8" width="10.1" height="11.0" fill="#B08528" opacity="0.69"/>
<rect x="748.8" y="185.2" width="10.1" height="11.0" fill="#B08528" opacity="0.62"/>
<rect x="748.8" y="195.6" width="10.1" height="11.0" fill="#3F7D5A" opacity="0.43"/>
<rect x="758.2" y="102.0" width="10.1" height="11.0" fill="#3F7D5A" opacity="0.06"/>
<rect x="758.2" y="112.4" width="10.1" height="11.0" fill="#3F7D5A" opacity="0.08"/>
<rect x="758.2" y="122.8" width="10.1" height="11.0" fill="#3F7D5A" opacity="0.05"/>
<rect x="758.2" y="133.2" width="10.1" height="11.0" fill="#3F7D5A" opacity="0.03"/>
<rect x="758.2" y="143.6" width="10.1" height="11.0" fill="#3F7D5A" opacity="0.05"/>
<rect x="758.2" y="154.0" width="10.1" height="11.0" fill="#3F7D5A" opacity="0.21"/>
<rect x="758.2" y="164.4" width="10.1" height="11.0" fill="#3F7D5A" opacity="0.44"/>
<rect x="758.2" y="174.8" width="10.1" height="11.0" fill="#B08528" opacity="0.61"/>
<rect x="758.2" y="185.2" width="10.1" height="11.0" fill="#B08528" opacity="0.64"/>
<rect x="758.2" y="195.6" width="10.1" height="11.0" fill="#3F7D5A" opacity="0.43"/>
<rect x="767.7" y="102.0" width="10.1" height="11.0" fill="#3F7D5A" opacity="0.04"/>
<rect x="767.7" y="112.4" width="10.1" height="11.0" fill="#3F7D5A" opacity="0.04"/>
<rect x="767.7" y="122.8" width="10.1" height="11.0" fill="#3F7D5A" opacity="0.02"/>
<rect x="767.7" y="133.2" width="10.1" height="11.0" fill="#3F7D5A" opacity="0.05"/>
<rect x="767.7" y="143.6" width="10.1" height="11.0" fill="#3F7D5A" opacity="0.11"/>
<rect x="767.7" y="154.0" width="10.1" height="11.0" fill="#3F7D5A" opacity="0.21"/>
<rect x="767.7" y="164.4" width="10.1" height="11.0" fill="#3F7D5A" opacity="0.32"/>
<rect x="767.7" y="174.8" width="10.1" height="11.0" fill="#B08528" opacity="0.54"/>
<rect x="767.7" y="185.2" width="10.1" height="11.0" fill="#B08528" opacity="0.54"/>
<rect x="767.7" y="195.6" width="10.1" height="11.0" fill="#3F7D5A" opacity="0.34"/>
<rect x="777.2" y="102.0" width="10.1" height="11.0" fill="#3F7D5A" opacity="0.00"/>
<rect x="777.2" y="112.4" width="10.1" height="11.0" fill="#3F7D5A" opacity="0.04"/>
<rect x="777.2" y="122.8" width="10.1" height="11.0" fill="#3F7D5A" opacity="0.05"/>
<rect x="777.2" y="133.2" width="10.1" height="11.0" fill="#3F7D5A" opacity="0.07"/>
<rect x="777.2" y="143.6" width="10.1" height="11.0" fill="#3F7D5A" opacity="0.04"/>
<rect x="777.2" y="154.0" width="10.1" height="11.0" fill="#3F7D5A" opacity="0.12"/>
<rect x="777.2" y="164.4" width="10.1" height="11.0" fill="#3F7D5A" opacity="0.31"/>
<rect x="777.2" y="174.8" width="10.1" height="11.0" fill="#3F7D5A" opacity="0.43"/>
<rect x="777.2" y="185.2" width="10.1" height="11.0" fill="#B08528" opacity="0.46"/>
<rect x="777.2" y="195.6" width="10.1" height="11.0" fill="#3F7D5A" opacity="0.28"/>
<rect x="786.6" y="102.0" width="10.1" height="11.0" fill="#3F7D5A" opacity="0.00"/>
<rect x="786.6" y="112.4" width="10.1" height="11.0" fill="#3F7D5A" opacity="0.01"/>
<rect x="786.6" y="122.8" width="10.1" height="11.0" fill="#3F7D5A" opacity="0.07"/>
<rect x="786.6" y="133.2" width="10.1" height="11.0" fill="#3F7D5A" opacity="0.05"/>
<rect x="786.6" y="143.6" width="10.1" height="11.0" fill="#3F7D5A" opacity="0.03"/>
<rect x="786.6" y="154.0" width="10.1" height="11.0" fill="#3F7D5A" opacity="0.12"/>
<rect x="786.6" y="164.4" width="10.1" height="11.0" fill="#3F7D5A" opacity="0.23"/>
<rect x="786.6" y="174.8" width="10.1" height="11.0" fill="#3F7D5A" opacity="0.35"/>
<rect x="786.6" y="185.2" width="10.1" height="11.0" fill="#3F7D5A" opacity="0.37"/>
<rect x="786.6" y="195.6" width="10.1" height="11.0" fill="#3F7D5A" opacity="0.24"/>
<rect x="796.1" y="102.0" width="10.1" height="11.0" fill="#3F7D5A" opacity="0.06"/>
<rect x="796.1" y="112.4" width="10.1" height="11.0" fill="#3F7D5A" opacity="0.02"/>
<rect x="796.1" y="122.8" width="10.1" height="11.0" fill="#3F7D5A" opacity="0.03"/>
<rect x="796.1" y="133.2" width="10.1" height="11.0" fill="#3F7D5A" opacity="0.06"/>
<rect x="796.1" y="143.6" width="10.1" height="11.0" fill="#3F7D5A" opacity="0.07"/>
<rect x="796.1" y="154.0" width="10.1" height="11.0" fill="#3F7D5A" opacity="0.12"/>
<rect x="796.1" y="164.4" width="10.1" height="11.0" fill="#3F7D5A" opacity="0.17"/>
<rect x="796.1" y="174.8" width="10.1" height="11.0" fill="#3F7D5A" opacity="0.24"/>
<rect x="796.1" y="185.2" width="10.1" height="11.0" fill="#3F7D5A" opacity="0.25"/>
<rect x="796.1" y="195.6" width="10.1" height="11.0" fill="#3F7D5A" opacity="0.21"/>
<rect x="805.5" y="102.0" width="10.1" height="11.0" fill="#3F7D5A" opacity="0.01"/>
<rect x="805.5" y="112.4" width="10.1" height="11.0" fill="#3F7D5A" opacity="0.04"/>
<rect x="805.5" y="122.8" width="10.1" height="11.0" fill="#3F7D5A" opacity="0.02"/>
<rect x="805.5" y="133.2" width="10.1" height="11.0" fill="#3F7D5A" opacity="0.04"/>
<rect x="805.5" y="143.6" width="10.1" height="11.0" fill="#3F7D5A" opacity="0.08"/>
<rect x="805.5" y="154.0" width="10.1" height="11.0" fill="#3F7D5A" opacity="0.08"/>
<rect x="805.5" y="164.4" width="10.1" height="11.0" fill="#3F7D5A" opacity="0.11"/>
<rect x="805.5" y="174.8" width="10.1" height="11.0" fill="#3F7D5A" opacity="0.18"/>
<rect x="805.5" y="185.2" width="10.1" height="11.0" fill="#3F7D5A" opacity="0.17"/>
<rect x="805.5" y="195.6" width="10.1" height="11.0" fill="#3F7D5A" opacity="0.10"/>
<rect x="815.0" y="102.0" width="10.1" height="11.0" fill="#3F7D5A" opacity="0.03"/>
<rect x="815.0" y="112.4" width="10.1" height="11.0" fill="#3F7D5A" opacity="0.05"/>
<rect x="815.0" y="122.8" width="10.1" height="11.0" fill="#3F7D5A" opacity="0.14"/>
<rect x="815.0" y="133.2" width="10.1" height="11.0" fill="#3F7D5A" opacity="0.12"/>
<rect x="815.0" y="143.6" width="10.1" height="11.0" fill="#3F7D5A" opacity="0.06"/>
<rect x="815.0" y="154.0" width="10.1" height="11.0" fill="#3F7D5A" opacity="0.08"/>
<rect x="815.0" y="164.4" width="10.1" height="11.0" fill="#3F7D5A" opacity="0.11"/>
<rect x="815.0" y="174.8" width="10.1" height="11.0" fill="#3F7D5A" opacity="0.09"/>
<rect x="815.0" y="185.2" width="10.1" height="11.0" fill="#3F7D5A" opacity="0.13"/>
<rect x="815.0" y="195.6" width="10.1" height="11.0" fill="#3F7D5A" opacity="0.10"/>
<rect x="824.5" y="102.0" width="10.1" height="11.0" fill="#3F7D5A" opacity="0.09"/>
<rect x="824.5" y="112.4" width="10.1" height="11.0" fill="#3F7D5A" opacity="0.12"/>
<rect x="824.5" y="122.8" width="10.1" height="11.0" fill="#3F7D5A" opacity="0.24"/>
<rect x="824.5" y="133.2" width="10.1" height="11.0" fill="#3F7D5A" opacity="0.25"/>
<rect x="824.5" y="143.6" width="10.1" height="11.0" fill="#3F7D5A" opacity="0.19"/>
<rect x="824.5" y="154.0" width="10.1" height="11.0" fill="#3F7D5A" opacity="0.11"/>
<rect x="824.5" y="164.4" width="10.1" height="11.0" fill="#3F7D5A" opacity="0.12"/>
<rect x="824.5" y="174.8" width="10.1" height="11.0" fill="#3F7D5A" opacity="0.13"/>
<rect x="824.5" y="185.2" width="10.1" height="11.0" fill="#3F7D5A" opacity="0.08"/>
<rect x="824.5" y="195.6" width="10.1" height="11.0" fill="#3F7D5A" opacity="0.13"/>
<rect x="833.9" y="102.0" width="10.1" height="11.0" fill="#3F7D5A" opacity="0.14"/>
<rect x="833.9" y="112.4" width="10.1" height="11.0" fill="#3F7D5A" opacity="0.30"/>
<rect x="833.9" y="122.8" width="10.1" height="11.0" fill="#B08528" opacity="0.53"/>
<rect x="833.9" y="133.2" width="10.1" height="11.0" fill="#B08528" opacity="0.54"/>
<rect x="833.9" y="143.6" width="10.1" height="11.0" fill="#3F7D5A" opacity="0.29"/>
<rect x="833.9" y="154.0" width="10.1" height="11.0" fill="#3F7D5A" opacity="0.16"/>
<rect x="833.9" y="164.4" width="10.1" height="11.0" fill="#3F7D5A" opacity="0.11"/>
<rect x="833.9" y="174.8" width="10.1" height="11.0" fill="#3F7D5A" opacity="0.14"/>
<rect x="833.9" y="185.2" width="10.1" height="11.0" fill="#3F7D5A" opacity="0.14"/>
<rect x="833.9" y="195.6" width="10.1" height="11.0" fill="#3F7D5A" opacity="0.07"/>
<rect x="843.4" y="102.0" width="10.1" height="11.0" fill="#3F7D5A" opacity="0.18"/>
<rect x="843.4" y="112.4" width="10.1" height="11.0" fill="#B08528" opacity="0.46"/>
<rect x="843.4" y="122.8" width="10.1" height="11.0" fill="#B08528" opacity="0.89"/>
<rect x="843.4" y="133.2" width="10.1" height="11.0" fill="#B08528" opacity="0.97"/>
<rect x="843.4" y="143.6" width="10.1" height="11.0" fill="#B08528" opacity="0.52"/>
<rect x="843.4" y="154.0" width="10.1" height="11.0" fill="#3F7D5A" opacity="0.15"/>
<rect x="843.4" y="164.4" width="10.1" height="11.0" fill="#3F7D5A" opacity="0.11"/>
<rect x="843.4" y="174.8" width="10.1" height="11.0" fill="#3F7D5A" opacity="0.15"/>
<rect x="843.4" y="185.2" width="10.1" height="11.0" fill="#3F7D5A" opacity="0.13"/>
<rect x="843.4" y="195.6" width="10.1" height="11.0" fill="#3F7D5A" opacity="0.14"/>
<rect x="852.8" y="102.0" width="10.1" height="11.0" fill="#3F7D5A" opacity="0.16"/>
<rect x="852.8" y="112.4" width="10.1" height="11.0" fill="#B08528" opacity="0.58"/>
<rect x="852.8" y="122.8" width="10.1" height="11.0" fill="#B08528" opacity="1.00"/>
<rect x="852.8" y="133.2" width="10.1" height="11.0" fill="#B08528" opacity="1.00"/>
<rect x="852.8" y="143.6" width="10.1" height="11.0" fill="#B08528" opacity="0.60"/>
<rect x="852.8" y="154.0" width="10.1" height="11.0" fill="#3F7D5A" opacity="0.21"/>
<rect x="852.8" y="164.4" width="10.1" height="11.0" fill="#3F7D5A" opacity="0.20"/>
<rect x="852.8" y="174.8" width="10.1" height="11.0" fill="#3F7D5A" opacity="0.24"/>
<rect x="852.8" y="185.2" width="10.1" height="11.0" fill="#3F7D5A" opacity="0.27"/>
<rect x="852.8" y="195.6" width="10.1" height="11.0" fill="#3F7D5A" opacity="0.14"/>
<rect x="862.3" y="102.0" width="10.1" height="11.0" fill="#3F7D5A" opacity="0.13"/>
<rect x="862.3" y="112.4" width="10.1" height="11.0" fill="#B08528" opacity="0.45"/>
<rect x="862.3" y="122.8" width="10.1" height="11.0" fill="#B08528" opacity="0.90"/>
<rect x="862.3" y="133.2" width="10.1" height="11.0" fill="#B08528" opacity="0.92"/>
<rect x="862.3" y="143.6" width="10.1" height="11.0" fill="#B08528" opacity="0.48"/>
<rect x="862.3" y="154.0" width="10.1" height="11.0" fill="#3F7D5A" opacity="0.25"/>
<rect x="862.3" y="164.4" width="10.1" height="11.0" fill="#3F7D5A" opacity="0.26"/>
<rect x="862.3" y="174.8" width="10.1" height="11.0" fill="#3F7D5A" opacity="0.29"/>
<rect x="862.3" y="185.2" width="10.1" height="11.0" fill="#3F7D5A" opacity="0.36"/>
<rect x="862.3" y="195.6" width="10.1" height="11.0" fill="#3F7D5A" opacity="0.24"/>
<rect x="871.8" y="102.0" width="10.1" height="11.0" fill="#3F7D5A" opacity="0.08"/>
<rect x="871.8" y="112.4" width="10.1" height="11.0" fill="#3F7D5A" opacity="0.27"/>
<rect x="871.8" y="122.8" width="10.1" height="11.0" fill="#B08528" opacity="0.56"/>
<rect x="871.8" y="133.2" width="10.1" height="11.0" fill="#B08528" opacity="0.61"/>
<rect x="871.8" y="143.6" width="10.1" height="11.0" fill="#3F7D5A" opacity="0.36"/>
<rect x="871.8" y="154.0" width="10.1" height="11.0" fill="#3F7D5A" opacity="0.19"/>
<rect x="871.8" y="164.4" width="10.1" height="11.0" fill="#3F7D5A" opacity="0.28"/>
<rect x="871.8" y="174.8" width="10.1" height="11.0" fill="#3F7D5A" opacity="0.41"/>
<rect x="871.8" y="185.2" width="10.1" height="11.0" fill="#3F7D5A" opacity="0.41"/>
<rect x="871.8" y="195.6" width="10.1" height="11.0" fill="#3F7D5A" opacity="0.30"/>
<rect x="881.2" y="102.0" width="10.1" height="11.0" fill="#3F7D5A" opacity="0.04"/>
<rect x="881.2" y="112.4" width="10.1" height="11.0" fill="#3F7D5A" opacity="0.13"/>
<rect x="881.2" y="122.8" width="10.1" height="11.0" fill="#3F7D5A" opacity="0.24"/>
<rect x="881.2" y="133.2" width="10.1" height="11.0" fill="#3F7D5A" opacity="0.31"/>
<rect x="881.2" y="143.6" width="10.1" height="11.0" fill="#3F7D5A" opacity="0.17"/>
<rect x="881.2" y="154.0" width="10.1" height="11.0" fill="#3F7D5A" opacity="0.22"/>
<rect x="881.2" y="164.4" width="10.1" height="11.0" fill="#3F7D5A" opacity="0.31"/>
<rect x="881.2" y="174.8" width="10.1" height="11.0" fill="#B08528" opacity="0.48"/>
<rect x="881.2" y="185.2" width="10.1" height="11.0" fill="#B08528" opacity="0.51"/>
<rect x="881.2" y="195.6" width="10.1" height="11.0" fill="#3F7D5A" opacity="0.38"/>
<rect x="890.7" y="102.0" width="10.1" height="11.0" fill="#3F7D5A" opacity="0.04"/>
<rect x="890.7" y="112.4" width="10.1" height="11.0" fill="#3F7D5A" opacity="0.06"/>
<rect x="890.7" y="122.8" width="10.1" height="11.0" fill="#3F7D5A" opacity="0.13"/>
<rect x="890.7" y="133.2" width="10.1" height="11.0" fill="#3F7D5A" opacity="0.10"/>
<rect x="890.7" y="143.6" width="10.1" height="11.0" fill="#3F7D5A" opacity="0.15"/>
<rect x="890.7" y="154.0" width="10.1" height="11.0" fill="#3F7D5A" opacity="0.18"/>
<rect x="890.7" y="164.4" width="10.1" height="11.0" fill="#3F7D5A" opacity="0.44"/>
<rect x="890.7" y="174.8" width="10.1" height="11.0" fill="#B08528" opacity="0.60"/>
<rect x="890.7" y="185.2" width="10.1" height="11.0" fill="#B08528" opacity="0.56"/>
<rect x="890.7" y="195.6" width="10.1" height="11.0" fill="#3F7D5A" opacity="0.44"/>
<rect x="900.2" y="102.0" width="10.1" height="11.0" fill="#3F7D5A" opacity="0.05"/>
<rect x="900.2" y="112.4" width="10.1" height="11.0" fill="#3F7D5A" opacity="0.02"/>
<rect x="900.2" y="122.8" width="10.1" height="11.0" fill="#3F7D5A" opacity="0.05"/>
<rect x="900.2" y="133.2" width="10.1" height="11.0" fill="#3F7D5A" opacity="0.06"/>
<rect x="900.2" y="143.6" width="10.1" height="11.0" fill="#3F7D5A" opacity="0.06"/>
<rect x="900.2" y="154.0" width="10.1" height="11.0" fill="#3F7D5A" opacity="0.20"/>
<rect x="900.2" y="164.4" width="10.1" height="11.0" fill="#B08528" opacity="0.47"/>
<rect x="900.2" y="174.8" width="10.1" height="11.0" fill="#B08528" opacity="0.62"/>
<rect x="900.2" y="185.2" width="10.1" height="11.0" fill="#B08528" opacity="0.68"/>
<rect x="900.2" y="195.6" width="10.1" height="11.0" fill="#B08528" opacity="0.47"/>
<rect x="909.6" y="102.0" width="10.1" height="11.0" fill="#3F7D5A" opacity="0.07"/>
<rect x="909.6" y="112.4" width="10.1" height="11.0" fill="#3F7D5A" opacity="0.06"/>
<rect x="909.6" y="122.8" width="10.1" height="11.0" fill="#3F7D5A" opacity="0.04"/>
<rect x="909.6" y="133.2" width="10.1" height="11.0" fill="#3F7D5A" opacity="0.05"/>
<rect x="909.6" y="143.6" width="10.1" height="11.0" fill="#3F7D5A" opacity="0.07"/>
<rect x="909.6" y="154.0" width="10.1" height="11.0" fill="#3F7D5A" opacity="0.26"/>
<rect x="909.6" y="164.4" width="10.1" height="11.0" fill="#B08528" opacity="0.45"/>
<rect x="909.6" y="174.8" width="10.1" height="11.0" fill="#B08528" opacity="0.68"/>
<rect x="909.6" y="185.2" width="10.1" height="11.0" fill="#B08528" opacity="0.65"/>
<rect x="909.6" y="195.6" width="10.1" height="11.0" fill="#3F7D5A" opacity="0.44"/>
<rect x="919.1" y="102.0" width="10.1" height="11.0" fill="#3F7D5A" opacity="0.03"/>
<rect x="919.1" y="112.4" width="10.1" height="11.0" fill="#3F7D5A" opacity="0.04"/>
<rect x="919.1" y="122.8" width="10.1" height="11.0" fill="#3F7D5A" opacity="0.02"/>
<rect x="919.1" y="133.2" width="10.1" height="11.0" fill="#3F7D5A" opacity="0.08"/>
<rect x="919.1" y="143.6" width="10.1" height="11.0" fill="#3F7D5A" opacity="0.06"/>
<rect x="919.1" y="154.0" width="10.1" height="11.0" fill="#3F7D5A" opacity="0.25"/>
<rect x="919.1" y="164.4" width="10.1" height="11.0" fill="#3F7D5A" opacity="0.45"/>
<rect x="919.1" y="174.8" width="10.1" height="11.0" fill="#B08528" opacity="0.66"/>
<rect x="919.1" y="185.2" width="10.1" height="11.0" fill="#B08528" opacity="0.71"/>
<rect x="919.1" y="195.6" width="10.1" height="11.0" fill="#B08528" opacity="0.45"/>
<rect x="928.5" y="102.0" width="10.1" height="11.0" fill="#3F7D5A" opacity="0.02"/>
<rect x="928.5" y="112.4" width="10.1" height="11.0" fill="#3F7D5A" opacity="0.04"/>
<rect x="928.5" y="122.8" width="10.1" height="11.0" fill="#3F7D5A" opacity="0.02"/>
<rect x="928.5" y="133.2" width="10.1" height="11.0" fill="#3F7D5A" opacity="0.09"/>
<rect x="928.5" y="143.6" width="10.1" height="11.0" fill="#3F7D5A" opacity="0.10"/>
<rect x="928.5" y="154.0" width="10.1" height="11.0" fill="#3F7D5A" opacity="0.18"/>
<rect x="928.5" y="164.4" width="10.1" height="11.0" fill="#3F7D5A" opacity="0.44"/>
<rect x="928.5" y="174.8" width="10.1" height="11.0" fill="#B08528" opacity="0.66"/>
<rect x="928.5" y="185.2" width="10.1" height="11.0" fill="#B08528" opacity="0.64"/>
<rect x="928.5" y="195.6" width="10.1" height="11.0" fill="#3F7D5A" opacity="0.44"/>
<text x="687" y="110" font-family="Lato, sans-serif" font-size="15.49" fill="#6B7A72" text-anchor="end" font-weight="400" font-style="normal" letter-spacing="0">aigu</text>
<text x="687" y="206" font-family="Lato, sans-serif" font-size="15.49" fill="#6B7A72" text-anchor="end" font-weight="400" font-style="normal" letter-spacing="0">grave</text>
<rect x="30" y="292" width="296" height="188" rx="5" fill="#fff" stroke="#D9D9C6" stroke-width="1.2"/>
<rect x="30" y="292" width="296" height="21" rx="5" fill="#3F7D5A" opacity="0.14"/>
<text x="40" y="307" font-family="Lato, sans-serif" font-size="19.36" fill="#3F7D5A" text-anchor="start" font-weight="700" font-style="normal" letter-spacing="0">MFCC</text>
<text x="40" y="442" font-family="Lato, sans-serif" font-size="15.49" fill="#6B7A72" text-anchor="start" font-weight="400" font-style="normal" letter-spacing="0">Compresse le spectre en</text>
<text x="40" y="454" font-family="Lato, sans-serif" font-size="15.49" fill="#6B7A72" text-anchor="start" font-weight="400" font-style="normal" letter-spacing="0">quelques nombres comparables.</text>
<text x="40" y="466" font-family="Lato, sans-serif" font-size="15.49" fill="#6B7A72" text-anchor="start" font-weight="400" font-style="normal" letter-spacing="0">Compare ; ne mesure rien.</text>
<rect x="44.0" y="351.6" width="15.9" height="22.4" fill="#3F7D5A" opacity="0.85"/>
<rect x="64.9" y="374.0" width="15.9" height="9.4" fill="#B08528" opacity="0.85"/>
<rect x="85.8" y="374.0" width="15.9" height="8.2" fill="#B08528" opacity="0.85"/>
<rect x="106.8" y="362.0" width="15.9" height="12.0" fill="#3F7D5A" opacity="0.85"/>
<rect x="127.7" y="354.6" width="15.9" height="19.4" fill="#3F7D5A" opacity="0.85"/>
<rect x="148.6" y="374.0" width="15.9" height="3.8" fill="#B08528" opacity="0.85"/>
<rect x="169.5" y="374.0" width="15.9" height="1.2" fill="#B08528" opacity="0.85"/>
<rect x="190.5" y="357.9" width="15.9" height="16.1" fill="#3F7D5A" opacity="0.85"/>
<rect x="211.4" y="369.2" width="15.9" height="4.8" fill="#3F7D5A" opacity="0.85"/>
<rect x="232.3" y="374.0" width="15.9" height="4.2" fill="#B08528" opacity="0.85"/>
<rect x="253.2" y="374.0" width="15.9" height="4.6" fill="#B08528" opacity="0.85"/>
<rect x="274.2" y="362.5" width="15.9" height="11.5" fill="#3F7D5A" opacity="0.85"/>
<rect x="295.1" y="371.0" width="15.9" height="3.0" fill="#3F7D5A" opacity="0.85"/>
<path d="M 42,374.0 L 314,374.0" fill="none" stroke="#D9D9C6" stroke-width="1.0" stroke-linecap="square" stroke-linejoin="round"/>
<text x="314" y="332" font-family="Lato, sans-serif" font-size="15.49" fill="#6B7A72" text-anchor="end" font-weight="400" font-style="normal" letter-spacing="0">c0 … c12</text>
<rect x="342" y="292" width="296" height="188" rx="5" fill="#fff" stroke="#D9D9C6" stroke-width="1.2"/>
<rect x="342" y="292" width="296" height="21" rx="5" fill="#A8552E" opacity="0.14"/>
<text x="352" y="307" font-family="Lato, sans-serif" font-size="19.36" fill="#A8552E" text-anchor="start" font-weight="700" font-style="normal" letter-spacing="0">Prédiction linéaire (LPC)</text>
<text x="352" y="442" font-family="Lato, sans-serif" font-size="15.49" fill="#6B7A72" text-anchor="start" font-weight="400" font-style="normal" letter-spacing="0">Enveloppe et résonances du</text>
<text x="352" y="454" font-family="Lato, sans-serif" font-size="15.49" fill="#6B7A72" text-anchor="start" font-weight="400" font-style="normal" letter-spacing="0">système de mesure. Pas des</text>
<text x="352" y="466" font-family="Lato, sans-serif" font-size="15.49" fill="#6B7A72" text-anchor="start" font-weight="400" font-style="normal" letter-spacing="0">formants : aucun conduit vocal.</text>
<path d="M 354.0,410.9 L 355.7,405.1 L 357.4,402.5 L 359.1,400.8 L 360.8,400.7 L 362.6,405.0 L 364.3,404.2 L 366.0,420.4 L 367.7,409.4 L 369.4,400.5 L 371.1,411.0 L 372.8,408.0 L 374.5,408.6 L 376.2,395.3 L 377.9,393.2 L 379.7,403.8 L 381.4,401.1 L 383.1,411.9 L 384.8,390.6 L 386.5,398.7 L 388.2,382.9 L 389.9,381.3 L 391.6,394.5 L 393.3,378.3 L 395.1,370.6 L 396.8,384.9 L 398.5,368.7 L 400.2,361.9 L 401.9,361.7 L 403.6,366.0 L 405.3,359.8 L 407.0,335.1 L 408.7,334.6 L 410.5,350.0 L 412.2,349.2 L 413.9,347.9 L 415.6,322.0 L 417.3,323.8 L 419.0,336.8 L 420.7,340.0 L 422.4,330.7 L 424.1,327.0 L 425.8,328.9 L 427.6,347.4 L 429.3,346.9 L 431.0,352.8 L 432.7,358.3 L 434.4,345.6 L 436.1,352.3 L 437.8,364.5 L 439.5,362.2 L 441.2,360.9 L 443.0,378.6 L 444.7,377.1 L 446.4,387.3 L 448.1,376.3 L 449.8,386.7 L 451.5,399.1 L 453.2,382.2 L 454.9,397.9 L 456.6,395.6 L 458.4,402.9 L 460.1,392.9 L 461.8,413.1 L 463.5,391.8 L 465.2,397.6 L 466.9,395.2 L 468.6,404.2 L 470.3,391.1 L 472.0,398.2 L 473.7,395.6 L 475.5,394.4 L 477.2,405.8 L 478.9,395.1 L 480.6,382.4 L 482.3,380.1 L 484.0,381.3 L 485.7,376.0 L 487.4,393.1 L 489.1,394.8 L 490.9,385.1 L 492.6,377.5 L 494.3,372.9 L 496.0,369.3 L 497.7,379.9 L 499.4,381.7 L 501.1,362.0 L 502.8,364.5 L 504.5,356.6 L 506.3,363.1 L 508.0,370.7 L 509.7,370.0 L 511.4,371.0 L 513.1,362.5 L 514.8,350.3 L 516.5,351.7 L 518.2,365.2 L 519.9,349.7 L 521.6,361.6 L 523.4,369.6 L 525.1,357.0 L 526.8,356.8 L 528.5,372.9 L 530.2,369.7 L 531.9,353.3 L 533.6,375.1 L 535.3,378.1 L 537.0,371.7 L 538.8,370.3 L 540.5,375.1 L 542.2,374.2 L 543.9,378.5 L 545.6,380.2 L 547.3,369.9 L 549.0,382.8 L 550.7,376.0 L 552.4,381.5 L 554.2,390.8 L 555.9,400.7 L 557.6,405.7 L 559.3,409.2 L 561.0,387.7 L 562.7,409.8 L 564.4,388.7 L 566.1,396.6 L 567.8,407.2 L 569.5,412.4 L 571.3,409.9 L 573.0,403.4 L 574.7,402.1 L 576.4,397.8 L 578.1,408.8 L 579.8,414.1 L 581.5,414.0 L 583.2,402.7 L 584.9,400.2 L 586.7,421.7 L 588.4,404.7 L 590.1,402.7 L 591.8,403.8 L 593.5,416.6 L 595.2,425.4 L 596.9,404.5 L 598.6,426.0 L 600.3,402.8 L 602.1,414.3 L 603.8,407.6 L 605.5,421.2 L 607.2,415.1 L 608.9,423.3 L 610.6,419.5 L 612.3,411.9 L 614.0,403.4 L 615.7,412.0 L 617.4,414.5 L 619.2,412.4 L 620.9,414.2 L 622.6,417.1 L 624.3,413.9 L 626.0,402.9" fill="none" stroke="#D9D9C6" stroke-width="1.0" stroke-linecap="round" stroke-linejoin="round"/>
<path d="M 354.0,425.7 L 355.7,425.5 L 357.4,425.4 L 359.1,425.2 L 360.8,424.9 L 362.6,424.5 L 364.3,424.1 L 366.0,423.6 L 367.7,422.9 L 369.4,422.1 L 371.1,421.2 L 372.8,420.0 L 374.5,418.6 L 376.2,417.0 L 377.9,415.1 L 379.7,412.9 L 381.4,410.3 L 383.1,407.5 L 384.8,404.2 L 386.5,400.6 L 388.2,396.7 L 389.9,392.4 L 391.6,387.8 L 393.3,382.9 L 395.1,377.7 L 396.8,372.3 L 398.5,366.8 L 400.2,361.2 L 401.9,355.7 L 403.6,350.3 L 405.3,345.1 L 407.0,340.2 L 408.7,335.7 L 410.5,331.7 L 412.2,328.3 L 413.9,325.6 L 415.6,323.6 L 417.3,322.4 L 419.0,322.0 L 420.7,322.4 L 422.4,323.6 L 424.1,325.5 L 425.8,328.2 L 427.6,331.5 L 429.3,335.4 L 431.0,339.8 L 432.7,344.6 L 434.4,349.7 L 436.1,355.0 L 437.8,360.5 L 439.5,365.9 L 441.2,371.2 L 443.0,376.3 L 444.7,381.2 L 446.4,385.8 L 448.1,390.1 L 449.8,394.0 L 451.5,397.4 L 453.2,400.5 L 454.9,403.1 L 456.6,405.2 L 458.4,406.9 L 460.1,408.3 L 461.8,409.1 L 463.5,409.7 L 465.2,409.8 L 466.9,409.6 L 468.6,409.1 L 470.3,408.2 L 472.0,407.1 L 473.7,405.7 L 475.5,404.1 L 477.2,402.3 L 478.9,400.3 L 480.6,398.0 L 482.3,395.7 L 484.0,393.2 L 485.7,390.5 L 487.4,387.8 L 489.1,385.0 L 490.9,382.2 L 492.6,379.3 L 494.3,376.4 L 496.0,373.6 L 497.7,370.9 L 499.4,368.2 L 501.1,365.6 L 502.8,363.2 L 504.5,361.0 L 506.3,358.9 L 508.0,357.1 L 509.7,355.5 L 511.4,354.2 L 513.1,353.1 L 514.8,352.4 L 516.5,351.9 L 518.2,351.8 L 519.9,351.9 L 521.6,352.4 L 523.4,353.1 L 525.1,354.2 L 526.8,355.5 L 528.5,357.1 L 530.2,358.9 L 531.9,361.0 L 533.6,363.2 L 535.3,365.6 L 537.0,368.2 L 538.8,370.9 L 540.5,373.7 L 542.2,376.5 L 543.9,379.4 L 545.6,382.3 L 547.3,385.2 L 549.0,388.0 L 550.7,390.8 L 552.4,393.5 L 554.2,396.2 L 555.9,398.7 L 557.6,401.1 L 559.3,403.4 L 561.0,405.6 L 562.7,407.7 L 564.4,409.6 L 566.1,411.3 L 567.8,413.0 L 569.5,414.5 L 571.3,415.8 L 573.0,417.1 L 574.7,418.2 L 576.4,419.2 L 578.1,420.1 L 579.8,420.9 L 581.5,421.6 L 583.2,422.3 L 584.9,422.8 L 586.7,423.3 L 588.4,423.7 L 590.1,424.1 L 591.8,424.4 L 593.5,424.7 L 595.2,424.9 L 596.9,425.1 L 598.6,425.2 L 600.3,425.4 L 602.1,425.5 L 603.8,425.6 L 605.5,425.7 L 607.2,425.7 L 608.9,425.8 L 610.6,425.8 L 612.3,425.9 L 614.0,425.9 L 615.7,425.9 L 617.4,425.9 L 619.2,426.0 L 620.9,426.0 L 622.6,426.0 L 624.3,426.0 L 626.0,426.0" fill="none" stroke="#A8552E" stroke-width="1.8" stroke-linecap="round" stroke-linejoin="round"/>
<line x1="418.6" y1="322" x2="418.6" y2="426" stroke="#A8552E" stroke-width="0.9" stroke-dasharray="3,3" opacity="0.6"/>
<line x1="517.2" y1="322" x2="517.2" y2="426" stroke="#A8552E" stroke-width="0.9" stroke-dasharray="3,3" opacity="0.6"/>
<rect x="654" y="292" width="296" height="188" rx="5" fill="#fff" stroke="#D9D9C6" stroke-width="1.2"/>
<rect x="654" y="292" width="296" height="21" rx="5" fill="#2F5E86" opacity="0.14"/>
<text x="664" y="307" font-family="Lato, sans-serif" font-size="19.36" fill="#2F5E86" text-anchor="start" font-weight="700" font-style="normal" letter-spacing="0">Cepstre</text>
<text x="664" y="442" font-family="Lato, sans-serif" font-size="15.49" fill="#6B7A72" text-anchor="start" font-weight="400" font-style="normal" letter-spacing="0">Révèle les périodicités lentes</text>
<text x="664" y="454" font-family="Lato, sans-serif" font-size="15.49" fill="#6B7A72" text-anchor="start" font-weight="400" font-style="normal" letter-spacing="0">qu'une dérive de fond masque.</text>
<text x="664" y="466" font-family="Lato, sans-serif" font-size="15.49" fill="#6B7A72" text-anchor="start" font-weight="400" font-style="normal" letter-spacing="0">L'abscisse est une quéfrence.</text>
<path d="M 666.0,421.2 L 667.7,415.1 L 669.4,412.0 L 671.1,422.2 L 672.8,420.2 L 674.6,413.0 L 676.3,423.5 L 678.0,416.3 L 679.7,419.7 L 681.4,425.6 L 683.1,413.8 L 684.8,417.8 L 686.5,411.9 L 688.2,416.4 L 689.9,423.4 L 691.7,425.5 L 693.4,414.8 L 695.1,415.7 L 696.8,417.3 L 698.5,421.5 L 700.2,417.3 L 701.9,422.2 L 703.6,420.6 L 705.3,422.2 L 707.1,413.9 L 708.8,415.2 L 710.5,420.8 L 712.2,417.6 L 713.9,413.2 L 715.6,414.6 L 717.3,425.2 L 719.0,418.1 L 720.7,417.9 L 722.5,424.2 L 724.2,419.7 L 725.9,426.0 L 727.6,414.5 L 729.3,419.5 L 731.0,419.6 L 732.7,416.4 L 734.4,412.4 L 736.1,414.3 L 737.8,423.4 L 739.6,421.8 L 741.3,423.5 L 743.0,413.5 L 744.7,415.1 L 746.4,425.8 L 748.1,423.5 L 749.8,413.6 L 751.5,411.2 L 753.2,390.6 L 755.0,389.4 L 756.7,398.2 L 758.4,399.6 L 760.1,418.1 L 761.8,413.8 L 763.5,419.5 L 765.2,424.9 L 766.9,414.5 L 768.6,423.8 L 770.4,413.2 L 772.1,412.3 L 773.8,412.8 L 775.5,421.6 L 777.2,416.6 L 778.9,415.4 L 780.6,415.9 L 782.3,422.6 L 784.0,425.5 L 785.7,426.0 L 787.5,411.6 L 789.2,411.9 L 790.9,422.6 L 792.6,417.1 L 794.3,415.4 L 796.0,423.3 L 797.7,415.7 L 799.4,423.7 L 801.1,416.2 L 802.9,425.4 L 804.6,415.4 L 806.3,418.5 L 808.0,423.1 L 809.7,418.6 L 811.4,416.7 L 813.1,422.9 L 814.8,421.2 L 816.5,418.4 L 818.3,425.2 L 820.0,418.7 L 821.7,417.7 L 823.4,412.3 L 825.1,418.6 L 826.8,418.7 L 828.5,418.9 L 830.2,419.3 L 831.9,424.3 L 833.6,420.8 L 835.4,409.5 L 837.1,414.8 L 838.8,401.3 L 840.5,362.0 L 842.2,341.8 L 843.9,322.0 L 845.6,342.6 L 847.3,367.8 L 849.0,393.5 L 850.8,406.7 L 852.5,413.0 L 854.2,418.8 L 855.9,422.4 L 857.6,415.3 L 859.3,422.8 L 861.0,414.9 L 862.7,418.0 L 864.4,424.2 L 866.2,423.1 L 867.9,425.1 L 869.6,420.1 L 871.3,423.6 L 873.0,422.4 L 874.7,413.6 L 876.4,415.4 L 878.1,420.2 L 879.8,416.4 L 881.5,412.5 L 883.3,418.1 L 885.0,415.0 L 886.7,414.4 L 888.4,418.4 L 890.1,412.3 L 891.8,422.4 L 893.5,422.8 L 895.2,412.8 L 896.9,416.9 L 898.7,422.7 L 900.4,423.9 L 902.1,420.3 L 903.8,417.7 L 905.5,425.4 L 907.2,412.3 L 908.9,416.9 L 910.6,423.3 L 912.3,415.5 L 914.1,414.7 L 915.8,425.8 L 917.5,423.9 L 919.2,422.6 L 920.9,424.7 L 922.6,421.7 L 924.3,418.1 L 926.0,425.2 L 927.7,415.9 L 929.4,419.4 L 931.2,413.5 L 932.9,421.4 L 934.6,424.7 L 936.3,424.2 L 938.0,413.4" fill="none" stroke="#2F5E86" stroke-width="1.3" stroke-linecap="round" stroke-linejoin="round"/>
<text x="842.8" y="330" font-family="Lato, sans-serif" font-size="15.49" fill="#2F5E86" text-anchor="middle" font-weight="400" font-style="normal" letter-spacing="0">période détectée</text>
<rect x="30" y="508" width="920" height="160" rx="5" fill="#E9F2EC" stroke="#3F7D5A" stroke-width="1.1"/>
<text x="44" y="536" font-family="Lato, sans-serif" font-size="19.08" fill="#3F7D5A" text-anchor="start" font-weight="700" font-style="normal" letter-spacing="0">CE QUE CES OUTILS FONT, ET CE QU'ILS NE FONT PAS</text>
<text x="44" y="560" font-family="Lato, sans-serif" font-size="17.42" fill="#23302C" text-anchor="start" font-weight="400" font-style="normal" letter-spacing="0">Aucune de ces représentations ne décode quoi que ce soit : elles décrivent la forme du</text>
<text x="44" y="582" font-family="Lato, sans-serif" font-size="17.42" fill="#23302C" text-anchor="start" font-weight="400" font-style="normal" letter-spacing="0">signal, plus finement qu'une courbe. Les constantes des outils de la parole — largeur des</text>
<text x="44" y="604" font-family="Lato, sans-serif" font-size="17.42" fill="#23302C" text-anchor="start" font-weight="400" font-style="normal" letter-spacing="0">fenêtres, bornes du banc de Mel, ordre de prédiction — sont transposées d'après la</text>
<text x="44" y="626" font-family="Lato, sans-serif" font-size="17.42" fill="#23302C" text-anchor="start" font-weight="400" font-style="normal" letter-spacing="0">fréquence d'échantillonnage réelle, cinq décades plus bas que la voix humaine : une trame</text>
<text x="44" y="648" font-family="Lato, sans-serif" font-size="17.42" fill="#23302C" text-anchor="start" font-weight="400" font-style="normal" letter-spacing="0">de MFCC dure ici huit secondes, non vingt-cinq millisecondes.</text>
<text x="28" y="698" font-family="Lato, sans-serif" font-size="15.49" fill="#6B7A72" text-anchor="start" font-weight="400" font-style="normal" letter-spacing="0">Bretagne Namasté</text>
<text x="952" y="698" font-family="DejaVu Sans Mono, monospace" font-size="15.49" fill="#6B7A72" text-anchor="end" font-weight="400" font-style="normal" letter-spacing="0">bretagne-namaste.com</text>
</svg>
